<svg xmlns="http://www.w3.org/2000/svg" xmlns:xlink="http://www.w3.org/1999/xlink" version="1.1"  x="0px" y="0px" viewBox="0 0 1280 380.45" enable-background="new 0 0 1280 380.45" xml:space="preserve">
<rect fill="#0006FF" width="1280" height="380.45"/>
<g>
	<path fill="#FFFFFF" d="M457.63,227.67c-1.29,0-1.94-0.63-1.94-1.89c0-1.29,0.65-1.94,1.94-1.94h37.43c1.39,0,2.09,0.66,2.09,1.99   c0,1.22-0.7,1.84-2.09,1.84h-16.93v11.98h19.38c0.71,0,1.22,0.16,1.5,0.48c0.29,0.32,0.43,0.81,0.43,1.45   c0,1.26-0.65,1.89-1.94,1.89h-18.72c0.82,2.11,1.89,4.14,3.21,6.09c1.33,1.96,2.82,3.81,4.49,5.56c1.67,1.75,3.48,3.37,5.43,4.84   c1.95,1.48,3.99,2.78,6.09,3.9c0.65,0.34,1.14,0.66,1.48,0.97c0.34,0.31,0.57,0.59,0.69,0.87c0.12,0.27,0.14,0.55,0.08,0.84   c-0.07,0.29-0.17,0.59-0.31,0.89c-0.27,0.58-0.67,0.89-1.2,0.94c-0.53,0.05-1.39-0.21-2.58-0.79c-4.35-2.28-8.22-5.1-11.6-8.47   c-3.38-3.37-6.04-7.17-7.98-11.42c-0.48,1.19-1.02,2.39-1.63,3.6c-0.61,1.21-1.29,2.34-2.04,3.39c-2.01,2.89-4.45,5.46-7.32,7.7   c-2.87,2.24-6.09,4.08-9.66,5.51c-1.19,0.48-2.03,0.68-2.52,0.61c-0.49-0.07-0.91-0.46-1.25-1.17c-0.27-0.61-0.26-1.19,0.03-1.73   c0.29-0.54,1.03-1.04,2.22-1.48c3.03-1.19,5.85-2.75,8.47-4.69c2.62-1.94,4.79-4.16,6.53-6.68c0.82-1.19,1.63-2.63,2.45-4.33   c0.82-1.7,1.41-3.35,1.79-4.95h-18.61c-1.29,0-1.94-0.66-1.94-1.99c0-1.22,0.65-1.84,1.94-1.84h19.02v-11.98H457.63z"/>
</g>
<g>
	<path fill="#FFFFFF" d="M604.98,261.07c0,1.84-0.31,3.1-0.92,3.8c-0.61,0.7-1.77,1.05-3.47,1.05h-8.57c-0.85,0-1.55-0.08-2.09-0.23   c-0.54-0.15-0.98-0.42-1.3-0.79c-0.32-0.37-0.55-0.87-0.69-1.48c-0.14-0.61-0.2-1.39-0.2-2.35v-34.12c0-0.85,0.06-1.56,0.18-2.14   c0.12-0.58,0.33-1.04,0.64-1.38c0.31-0.34,0.74-0.59,1.3-0.74s1.28-0.23,2.17-0.23h8.57c0.92,0,1.67,0.08,2.24,0.23   c0.58,0.15,1.02,0.41,1.33,0.77s0.52,0.82,0.64,1.4c0.12,0.58,0.18,1.27,0.18,2.09V261.07z M591.56,241.69h9.54v-14.64   c0-0.27-0.06-0.49-0.18-0.66c-0.12-0.17-0.31-0.25-0.59-0.25h-8.06c-0.48,0-0.71,0.31-0.71,0.92V241.69z M601.1,245.42h-9.54v15.76   c0,0.31,0.07,0.56,0.2,0.77c0.14,0.2,0.31,0.31,0.51,0.31h8.06c0.51,0,0.77-0.36,0.77-1.07V245.42z M608.8,232.87   c-1.29,0-1.94-0.63-1.94-1.89c0-1.26,0.65-1.89,1.94-1.89h16.32v-6.99c0-0.75,0.18-1.3,0.54-1.66s0.84-0.54,1.45-0.54   c0.65,0,1.16,0.18,1.53,0.54c0.37,0.36,0.56,0.91,0.56,1.66v6.99h3.77c0.71,0,1.22,0.17,1.53,0.51c0.31,0.34,0.46,0.8,0.46,1.38   c0,0.58-0.15,1.04-0.46,1.38c-0.31,0.34-0.82,0.51-1.53,0.51h-3.77v28.71c0,1.26-0.11,2.32-0.33,3.19   c-0.22,0.87-0.6,1.56-1.15,2.09c-0.54,0.53-1.25,0.91-2.12,1.15c-0.87,0.24-1.95,0.34-3.24,0.31c-0.61,0-1.22-0.03-1.81-0.1   c-0.6-0.07-1.24-0.16-1.94-0.28c-0.7-0.12-1.48-0.29-2.35-0.51c-0.87-0.22-1.88-0.52-3.03-0.89c-0.99-0.31-1.62-0.67-1.89-1.1   c-0.27-0.43-0.27-1.03,0-1.81c0.24-0.61,0.59-1,1.05-1.17c0.46-0.17,1.22-0.08,2.27,0.25c0.99,0.31,1.84,0.55,2.58,0.74   c0.73,0.19,1.38,0.34,1.94,0.46c0.56,0.12,1.08,0.2,1.56,0.25c0.48,0.05,0.97,0.09,1.48,0.13c1.19,0.07,1.97-0.11,2.35-0.54   c0.37-0.43,0.56-1.23,0.56-2.42v-28.46H608.8z M620.33,252.35c0.41,1.19,0.55,2.05,0.43,2.58c-0.12,0.53-0.47,0.89-1.05,1.1   c-0.75,0.27-1.35,0.25-1.81-0.08c-0.46-0.32-0.88-1.03-1.25-2.12c-0.71-2.11-1.6-4.35-2.65-6.73c-1.05-2.38-2.23-4.76-3.52-7.14   c-0.85-1.6-0.75-2.69,0.31-3.26c0.68-0.37,1.27-0.47,1.76-0.28c0.49,0.19,0.98,0.72,1.45,1.61c1.39,2.48,2.6,4.93,3.62,7.34   C618.64,247.78,619.54,250.11,620.33,252.35z"/>
</g>
<g>
	<path fill="#FFFFFF" d="M734.42,230.68c-0.88,1.46-1.87,2.86-2.96,4.18c-1.09,1.33-2.29,2.63-3.62,3.9   c-1.33,1.27-2.82,2.56-4.49,3.85c-0.88,0.68-1.62,1.04-2.22,1.07c-0.6,0.03-1.08-0.2-1.45-0.71c-0.82-1.05-0.46-2.18,1.07-3.37   c1.5-1.12,2.86-2.24,4.08-3.37c1.22-1.12,2.35-2.29,3.37-3.49c1.02-1.21,1.96-2.5,2.8-3.88s1.65-2.9,2.4-4.56   c0.37-0.85,0.8-1.38,1.27-1.61c0.48-0.22,1.05-0.18,1.73,0.13c0.61,0.27,0.95,0.66,1.02,1.15c0.07,0.49-0.1,1.18-0.51,2.07   C736.13,227.67,735.3,229.22,734.42,230.68z M727.99,242.43c-0.44-0.29-0.66-0.77-0.66-1.45c0-0.75,0.2-1.28,0.61-1.61   c0.41-0.32,0.93-0.48,1.58-0.48h25.04c0.95,0,1.73,0.08,2.35,0.23c0.61,0.15,1.1,0.43,1.45,0.82c0.36,0.39,0.59,0.94,0.69,1.63   c0.1,0.7,0.14,1.59,0.1,2.68l-0.76,15.81c-0.07,1.53-0.24,2.8-0.51,3.8c-0.27,1-0.69,1.8-1.25,2.4c-0.56,0.59-1.28,1.01-2.17,1.25   c-0.88,0.24-1.96,0.36-3.21,0.36c-0.68,0-1.44-0.05-2.27-0.15s-1.68-0.24-2.55-0.41c-0.87-0.17-1.7-0.37-2.5-0.59   c-0.8-0.22-1.52-0.45-2.17-0.69c-1.05-0.41-1.75-0.83-2.09-1.25c-0.34-0.43-0.37-0.99-0.1-1.71c0.27-0.78,0.68-1.22,1.22-1.3   c0.54-0.08,1.17,0.01,1.89,0.28c1.63,0.65,3.07,1.1,4.31,1.38c1.24,0.27,2.3,0.41,3.19,0.41c0.82,0,1.49-0.05,2.01-0.15   s0.95-0.3,1.28-0.59c0.32-0.29,0.55-0.67,0.69-1.15c0.14-0.48,0.22-1.11,0.25-1.89l0.76-15.81c0.03-0.51-0.04-0.87-0.23-1.07   s-0.48-0.31-0.89-0.31h-13.97c-0.37,3.37-0.89,6.32-1.56,8.85c-0.66,2.53-1.57,4.79-2.73,6.78c-1.16,1.99-2.62,3.77-4.39,5.33   c-1.77,1.56-3.93,3.03-6.48,4.39c-1.7,0.92-2.86,0.75-3.47-0.51c-0.31-0.58-0.36-1.13-0.15-1.66c0.2-0.53,0.73-1.03,1.58-1.5   c2.14-1.16,3.97-2.35,5.48-3.6c1.51-1.24,2.78-2.68,3.8-4.31c1.02-1.63,1.83-3.55,2.42-5.76c0.59-2.21,1.06-4.88,1.4-8.01h-6.43   C728.96,242.87,728.43,242.72,727.99,242.43z M754.46,224.86c-0.37-0.85-0.72-1.53-1.04-2.04c-0.32-0.51-0.67-0.91-1.05-1.2   c-0.37-0.29-0.79-0.48-1.25-0.56c-0.46-0.08-1.01-0.13-1.66-0.13h-6.27c-0.85,0-1.43,0.17-1.73,0.51c-0.31,0.34-0.46,0.8-0.46,1.38   c0,0.75,0.14,1.25,0.41,1.5c0.27,0.26,0.9,0.38,1.89,0.38h5.05c0.31,0,0.57,0.01,0.79,0.03c0.22,0.02,0.42,0.09,0.59,0.23   c0.17,0.14,0.35,0.33,0.54,0.59c0.19,0.25,0.4,0.6,0.64,1.05c0.61,1.29,1.38,2.68,2.32,4.16c0.93,1.48,1.97,2.95,3.11,4.41   c1.14,1.46,2.35,2.86,3.62,4.18c1.28,1.33,2.54,2.45,3.8,3.37c0.92,0.68,1.65,1.01,2.19,0.99c0.54-0.02,1.04-0.31,1.48-0.89   c0.78-1.05,0.37-2.19-1.22-3.42c-1.36-1.02-2.66-2.18-3.9-3.47c-1.24-1.29-2.37-2.6-3.39-3.93c-1.02-1.33-1.91-2.61-2.68-3.85   c-0.76-1.24-1.35-2.32-1.76-3.24V224.86z"/>
</g>
<g>
	<path fill="#FFFFFF" d="M870.61,234.86c1.19,0,1.79,0.61,1.79,1.84c0,1.26-0.6,1.89-1.79,1.89h-5.15c1.09,1.43,2.03,2.72,2.83,3.88   c0.8,1.16,1.42,2.12,1.86,2.91c0.58,0.99,0.82,1.73,0.71,2.22c-0.1,0.49-0.46,0.91-1.07,1.25c-0.54,0.31-1.04,0.37-1.5,0.2   c-0.46-0.17-0.89-0.65-1.3-1.43c-0.27-0.51-0.56-1.03-0.87-1.56c-0.31-0.53-0.65-1.06-1.02-1.61v22.59c0,0.68-0.15,1.16-0.46,1.43   c-0.31,0.27-0.75,0.41-1.33,0.41c-0.68,0-1.16-0.14-1.43-0.41c-0.27-0.27-0.41-0.75-0.41-1.43V247.1   c-0.68,1.39-1.45,2.81-2.32,4.23c-0.87,1.43-1.88,2.98-3.04,4.64c-0.54,0.78-1.04,1.27-1.5,1.45c-0.46,0.19-0.98,0.09-1.56-0.28   c-0.58-0.37-0.88-0.83-0.89-1.38c-0.02-0.54,0.21-1.14,0.69-1.79c0.95-1.29,1.83-2.55,2.63-3.77c0.8-1.22,1.53-2.45,2.19-3.67   c0.66-1.22,1.28-2.48,1.84-3.77c0.56-1.29,1.11-2.69,1.66-4.18h-6.58c-0.71,0-1.21-0.15-1.48-0.46c-0.27-0.31-0.41-0.78-0.41-1.43   c0-0.61,0.14-1.07,0.41-1.38c0.27-0.31,0.77-0.46,1.48-0.46h6.88v-6.32c-0.78,0.17-1.61,0.32-2.47,0.46   c-0.87,0.14-1.79,0.29-2.78,0.46c-1.02,0.17-1.76,0.16-2.22-0.03c-0.46-0.19-0.72-0.65-0.79-1.4c-0.07-0.68,0.07-1.2,0.41-1.56   s1-0.6,1.99-0.74c2.75-0.37,5.24-0.85,7.45-1.43c2.21-0.58,4.1-1.22,5.66-1.94c1.7-0.78,2.79-0.68,3.26,0.31   c0.31,0.68,0.37,1.24,0.2,1.68c-0.17,0.44-0.8,0.9-1.89,1.38c-0.85,0.37-1.69,0.71-2.52,1.02c-0.83,0.31-1.73,0.6-2.68,0.87v7.24   H870.61z M894.23,248.12c-1.09,2.55-2.35,4.88-3.77,6.99c-1.43,2.11-3.11,4-5.05,5.66c-1.94,1.67-4.16,3.11-6.66,4.33   c-2.5,1.22-5.35,2.21-8.54,2.96c-1.12,0.27-1.93,0.26-2.42-0.03c-0.49-0.29-0.79-0.81-0.89-1.56c-0.07-0.78,0.13-1.33,0.59-1.66   c0.46-0.32,1.13-0.6,2.01-0.84c2.86-0.71,5.37-1.58,7.55-2.6s4.09-2.23,5.74-3.62c1.65-1.39,3.1-3,4.36-4.82   c1.26-1.82,2.43-3.92,3.52-6.3c0.41-0.88,0.85-1.44,1.33-1.68c0.48-0.24,1.05-0.22,1.73,0.05   C894.74,245.45,894.91,246.49,894.23,248.12z M879.9,227.62c-0.27,4.11-0.74,7.91-1.4,11.4c-0.66,3.49-1.64,6.84-2.93,10.07   c-0.38,0.92-0.84,1.5-1.4,1.76c-0.56,0.26-1.15,0.23-1.76-0.08c-0.58-0.27-0.94-0.71-1.07-1.3c-0.14-0.59,0-1.33,0.41-2.22   c0.54-1.19,1.05-2.56,1.53-4.11c0.48-1.55,0.89-3.2,1.25-4.95c0.36-1.75,0.65-3.54,0.87-5.38c0.22-1.84,0.38-3.65,0.48-5.46   c0.03-0.71,0.2-1.29,0.51-1.73c0.31-0.44,0.85-0.65,1.63-0.61C879.3,225.05,879.93,225.92,879.9,227.62z M886.53,251.89   c0,1.53-0.65,2.3-1.94,2.3c-0.75,0-1.27-0.19-1.58-0.56c-0.31-0.37-0.46-0.95-0.46-1.73v-29.58c0-0.78,0.14-1.34,0.43-1.68   c0.29-0.34,0.81-0.51,1.56-0.51c1.33,0,1.99,0.75,1.99,2.24V251.89z M888.72,227.82c-0.48-1.5-0.19-2.45,0.87-2.86   c0.61-0.27,1.17-0.27,1.68,0c0.51,0.27,0.9,0.75,1.17,1.43c0.65,1.7,1.33,3.54,2.04,5.53c0.71,1.99,1.41,3.98,2.09,5.97   c0.68,1.99,1.33,3.92,1.94,5.79c0.61,1.87,1.12,3.52,1.53,4.95c0.27,1.02,0.33,1.79,0.18,2.32c-0.15,0.53-0.57,0.89-1.25,1.1   c-0.65,0.17-1.2,0.13-1.66-0.13c-0.46-0.26-0.82-0.86-1.1-1.81c-0.48-1.63-1.03-3.44-1.66-5.43c-0.63-1.99-1.29-3.99-1.99-6.02   c-0.7-2.02-1.39-3.98-2.07-5.86C889.82,230.91,889.23,229.25,888.72,227.82z"/>
</g>
<g>
	<defs>
		<rect id="SVGID_1_" x="372.74" y="219.92" width="550.19" height="48.96"/>
	</defs>
	<clipPath id="SVGID_2_">
		<use xlink:href="#SVGID_1_" overflow="visible"/>
	</clipPath>
	<g id="DAY" clip-path="url(#SVGID_2_)">
		<g>
			<animateTransform attributeName="transform" type="translate" values="0 0;0 -395" fill="freeze" dur="2s" calcMode="spline" additive="sum" repeatcount="indefinite" keySplines="0.42 0 0.58 1.0" keyTimes="0;1"/>
			<text id="t_d" transform="matrix(1 0 0 1 385.3235 658.1279)" fill="#FFFFFF" font-family="Futura-Medium" font-size="51px">0</text>
		<text id="编组" transform="matrix(1 0 0 1 392.1575 262.0432)"><tspan x="0" y="0" fill="#FFFFFF" font-family="Futura-Medium" font-size="51px">12</tspan><tspan x="-4.92" y="44" fill="#FFFFFF" font-family="Futura-Medium" font-size="51px">47</tspan><tspan x="-6.48" y="88" fill="#FFFFFF" font-family="Futura-Medium" font-size="51px">04</tspan><tspan x="0.59" y="132" fill="#FFFFFF" font-family="Futura-Medium" font-size="51px">19</tspan><tspan x="-4.64" y="176" fill="#FFFFFF" font-family="Futura-Medium" font-size="51px">56</tspan><tspan x="-5.84" y="220" fill="#FFFFFF" font-family="Futura-Medium" font-size="51px">32</tspan><tspan x="-4.1" y="264" fill="#FFFFFF" font-family="Futura-Medium" font-size="51px">67</tspan><tspan x="-6.04" y="308" fill="#FFFFFF" font-family="Futura-Medium" font-size="51px">38</tspan><tspan x="-5.23" y="352" fill="#FFFFFF" font-family="Futura-Medium" font-size="51px">25</tspan></text>
		</g>
	</g>
	<g id="HOUR" clip-path="url(#SVGID_2_)">
		<g>
			<animateTransform attributeName="transform" type="translate" values="0 0;0 -528" fill="freeze" dur="3s" calcMode="spline" additive="sum" repeatcount="indefinite" keySplines="0.42 0 0.58 1.0" keyTimes="0;1"/>
			<text id="t_h" transform="matrix(1 0 0 1 521.326 790.1194)" fill="#FFFFFF" font-family="Futura-Medium" font-size="51px">00</text>
		<text id="编组_1_" transform="matrix(1 0 0 1 521.7343 262.0432)"><tspan x="0" y="0" fill="#FFFFFF" font-family="Futura-Medium" font-size="51px">30</tspan><tspan x="0.76" y="44" fill="#FFFFFF" font-family="Futura-Medium" font-size="51px">22</tspan><tspan x="7.01" y="88" fill="#FFFFFF" font-family="Futura-Medium" font-size="51px">61</tspan><tspan x="0.18" y="132" fill="#FFFFFF" font-family="Futura-Medium" font-size="51px">02</tspan><tspan x="7.4" y="176" fill="#FFFFFF" font-family="Futura-Medium" font-size="51px">17</tspan><tspan x="1.5" y="220" fill="#FFFFFF" font-family="Futura-Medium" font-size="51px">47</tspan><tspan x="1.17" y="264" fill="#FFFFFF" font-family="Futura-Medium" font-size="51px">39</tspan><tspan x="6.25" y="308" fill="#FFFFFF" font-family="Futura-Medium" font-size="51px">13</tspan><tspan x="1.15" y="352" fill="#FFFFFF" font-family="Futura-Medium" font-size="51px">07</tspan><tspan x="6.86" y="396" fill="#FFFFFF" font-family="Futura-Medium" font-size="51px">15</tspan><tspan x="1.2" y="440" fill="#FFFFFF" font-family="Futura-Medium" font-size="51px">52</tspan><tspan x="0.97" y="484" fill="#FFFFFF" font-family="Futura-Medium" font-size="51px">54</tspan></text>
		</g>
	</g>
	<g id="MIN" clip-path="url(#SVGID_2_)">
		<g>
			<animateTransform attributeName="transform" type="translate" values="0 0;0 -615" fill="freeze" dur="4s" calcMode="spline" additive="sum" repeatcount="indefinite" keySplines="0.42 0 0.58 1.0" keyTimes="0;1"/>
			<text id="t_m" transform="matrix(1 0 0 1 652.8129 879.1194)" fill="#FFFFFF" font-family="Futura-Medium" font-size="51px">00</text>
		<text id="编组_2_" transform="matrix(1 0 0 1 653.1952 262.0432)"><tspan x="0" y="0" fill="#FFFFFF" font-family="Futura-Medium" font-size="51px">08</tspan><tspan x="0.38" y="44" fill="#FFFFFF" font-family="Futura-Medium" font-size="51px">43</tspan><tspan x="2.73" y="88" fill="#FFFFFF" font-family="Futura-Medium" font-size="51px">77</tspan><tspan x="0.59" y="132" fill="#FFFFFF" font-family="Futura-Medium" font-size="51px">28</tspan><tspan x="1.38" y="176" fill="#FFFFFF" font-family="Futura-Medium" font-size="51px">26</tspan><tspan x="1.17" y="220" fill="#FFFFFF" font-family="Futura-Medium" font-size="51px">89</tspan><tspan x="1.81" y="264" fill="#FFFFFF" font-family="Futura-Medium" font-size="51px">95</tspan><tspan x="0.03" y="308" fill="#FFFFFF" font-family="Futura-Medium" font-size="51px">30</tspan><tspan x="1.38" y="352" fill="#FFFFFF" font-family="Futura-Medium" font-size="51px">29</tspan><tspan x="0.79" y="396" fill="#FFFFFF" font-family="Futura-Medium" font-size="51px">06</tspan><tspan x="1.2" y="440" fill="#FFFFFF" font-family="Futura-Medium" font-size="51px">39</tspan><tspan x="2.35" y="484" fill="#FFFFFF" font-family="Futura-Medium" font-size="51px">67</tspan><tspan x="2.35" y="528" fill="#FFFFFF" font-family="Futura-Medium" font-size="51px">76</tspan><tspan x="6.89" y="572" fill="#FFFFFF" font-family="Futura-Medium" font-size="51px">51</tspan></text>
		</g>
	</g>
	<g id="sec" clip-path="url(#SVGID_2_)">
		<g>
			<animateTransform attributeName="transform" type="translate" values="0 0;0 -705" fill="freeze" dur="5s" calcMode="spline" additive="sum" repeatcount="indefinite" keySplines="0.42 0 0.58 1.0" keyTimes="0;1"/>
			<text id="t_s" transform="matrix(1 0 0 1 783.816 967.1194)" fill="#fff100" font-family="Futura-Medium" font-size="51px">00</text>
		<text id="编组_3_" transform="matrix(1 0 0 1 786.1622 262.0432)"><tspan x="0" y="0" fill="#fff100" font-family="Futura-Medium" font-size="51px">96</tspan><tspan x="-0.97" y="44" fill="#fff100" font-family="Futura-Medium" font-size="51px">54</tspan><tspan x="5.07" y="88" fill="#fff100" font-family="Futura-Medium" font-size="51px">16</tspan><tspan x="-1.38" y="132" fill="#fff100" font-family="Futura-Medium" font-size="51px">28</tspan><tspan x="-1.76" y="176" fill="#fff100" font-family="Futura-Medium" font-size="51px">02</tspan><tspan x="-0.15" y="220" fill="#fff100" font-family="Futura-Medium" font-size="51px">59</tspan><tspan x="-0.82" y="264" fill="#fff100" font-family="Futura-Medium" font-size="51px">46</tspan><tspan x="-0.76" y="308" fill="#fff100" font-family="Futura-Medium" font-size="51px">39</tspan><tspan x="0" y="352" fill="#fff100" font-family="Futura-Medium" font-size="51px">66</tspan><tspan x="-0.79" y="396" fill="#fff100" font-family="Futura-Medium" font-size="51px">07</tspan><tspan x="-0.59" y="440" fill="#fff100" font-family="Futura-Medium" font-size="51px">26</tspan><tspan x="-0.43" y="484" fill="#fff100" font-family="Futura-Medium" font-size="51px">74</tspan><tspan x="-1.38" y="528" fill="#fff100" font-family="Futura-Medium" font-size="51px">82</tspan><tspan x="5.07" y="572" fill="#fff100" font-family="Futura-Medium" font-size="51px">19</tspan><tspan x="-1.4" y="616" fill="#fff100" font-family="Futura-Medium" font-size="51px">42</tspan><tspan x="0.38" y="660" fill="#fff100" font-family="Futura-Medium" font-size="51px">79</tspan></text>
		</g>
	</g>
</g>
<g>
<g xmlns="http://www.w3.org/2000/svg">
	<path fill="#FFFFFF" d="M472.5,178.6c2-0.5,4-1,6-1.6l0.8,5.5c-7.4,2.2-15.4,4.5-21.5,6.2l-1.5-6.1l2.5-0.6v-17.9h5.4v16.6l2.4-0.6   v-20.5H459v-17.9h19.3v17.9h-5.8v6.2h6v5.6h-6V178.6z M464.4,154.2h8v-7h-8V154.2z M507.5,182.1v6.3h-27V142h26v6.3h-19.5v6.3h16.9   v20.4h-16.9v7.1H507.5z M487.1,160.7v8.4h10.9v-8.4H487.1z"/>
	<path fill="#FFFFFF" d="M560.6,149.6h-17.3l3.7,1.9c-1.6,1.1-3.5,2.3-5.5,3.5c2.3,1.1,4.5,2.1,6,3l-2.6,3.3   c-1.9-1.1-4.6-2.5-7.7-3.9c-2.8,1.5-5.7,2.8-8.3,3.9h20.1v-10.4h6.4v15.3h-15.2c-0.5,0.9-0.9,1.8-1.5,2.8h20.1v15.8   c0,2.9-0.8,4.1-3.1,4.9c-2.2,0.8-5.3,0.8-9.6,0.8c-0.4-1.5-1.4-3.5-2.1-4.8c2.7,0.2,6.4,0.1,7.2,0.1c0.9-0.1,1.2-0.3,1.2-1v-10.3   h-7.9c2.1,2.5,4.6,5.5,5.9,7.5l-4.2,3c-0.4-0.7-0.9-1.5-1.6-2.3c-15.4,1.7-17.6,2.1-19.1,2.9c-0.3-1.3-1.4-4.3-2-6   c1.1-0.3,2.2-1.4,3.5-3c0.3-0.4,0.8-1.1,1.4-2H521v15.9h-6.3V169h17c0.5-0.9,1-1.8,1.4-2.8h-14.8v-15.3h6.1v10.4h4.2   c-0.7-0.9-2.1-2.6-3.1-3.3c2.2-0.8,4.7-1.7,7.1-2.8c-2.1-1-4.1-1.8-5.9-2.7l2.5-2.9c2.4,1,5.2,2.2,7.9,3.3c2.2-1.1,4.2-2.3,6-3.5   h-30.5V144h20.2c-0.4-1.1-0.9-2.2-1.4-3.2l5.8-1.7c0.8,1.5,1.6,3.3,2.3,4.8h21.1V149.6z M535.2,174.4c-1.1,1.7-2.3,3.2-3.5,4.7   l9.6-1c-0.6-0.8-1.2-1.5-1.7-2.1l2.4-1.6H535.2z"/>
	<path fill="#FFFFFF" d="M578.3,181.1c10.9-9.8,17.4-17.3,17.4-23.5c0-4.1-2.2-6.5-6-6.5c-2.9,0-5.4,1.9-7.4,4.1l-4.3-4.3   c3.7-3.9,7.3-6.1,12.8-6.1c7.6,0,12.7,4.9,12.7,12.4c0,7.3-6,15.1-13.4,22.3c2-0.2,4.7-0.4,6.5-0.4h8.7v6.7h-27V181.1z"/>
	<path fill="#FFFFFF" d="M610.4,165.4c0-13.9,5.4-20.7,13.6-20.7c8.2,0,13.6,6.8,13.6,20.7s-5.4,21-13.6,21   C615.8,186.5,610.4,179.3,610.4,165.4z M630.1,165.4c0-11.2-2.6-14.5-6-14.5c-3.5,0-6.1,3.3-6.1,14.5c0,11.3,2.6,14.8,6.1,14.8   C627.5,180.2,630.1,176.8,630.1,165.4z"/>
	<path fill="#FFFFFF" d="M642.3,181.1c10.9-9.8,17.4-17.3,17.4-23.5c0-4.1-2.2-6.5-6-6.5c-2.9,0-5.4,1.9-7.4,4.1l-4.3-4.3   c3.7-3.9,7.3-6.1,12.8-6.1c7.6,0,12.7,4.9,12.7,12.4c0,7.3-6,15.1-13.4,22.3c2-0.2,4.7-0.4,6.5-0.4h8.7v6.7h-27V181.1z"/>
	<path fill="#FFFFFF" d="M676.5,179.2h8.6v-25.4h-7.3v-4.9c4-0.8,6.8-1.8,9.3-3.4h5.9v33.7h7.6v6.5h-24.2V179.2z"/>
	<path fill="#FFFFFF" d="M731,178.9c0.9,0.6,1.9,1.3,3.2,2.1c3.7,2.2,8.8,2.6,15.1,2.6c5.8,0,14.8-0.5,20.4-1.4   c-0.8,1.9-1.9,5.3-2,7.2c-4,0.2-13,0.6-18.7,0.6c-7.2,0-11.7-0.7-15.8-2.9c-2.5-1.4-4.5-3.2-5.7-3.2c-1.6,0-3.9,3.7-5.8,7.1   l-4.8-6.5c2.6-2.8,5.2-4.8,7.5-6V164h-6.1v-6.4H731v10.2c6.8-4.3,13-11,17.3-18.5h-14v-6.4h32.9v6.4h-11.4   c-0.8,1.6-1.7,3.2-2.7,4.7v6.8l4.2-3.6c3.5,3.4,8.7,8.3,11.2,11.2l-5,4.6c-2.2-2.9-7-7.7-10.4-11.4v19.8h-6.7v-18.3   c-3.3,3.9-7,7.3-10.7,9.9c-1-1.3-3.3-3.9-4.8-5.1V178.9z M728,153.1c-1.5-2.6-4.9-6.7-7.7-9.6l5-3.6c2.8,2.7,6.4,6.5,8.2,9   L728,153.1z"/>
	<path fill="#FFFFFF" d="M793,152.3c-0.7,1.5-1.4,2.9-2.2,4.3h25.2v26.8c0,3.2-0.6,4.9-2.8,5.9c-2.1,1-5.2,1.1-9.6,1.1   c-0.3-1.8-1.1-4.5-2-6.2c2.8,0.2,5.9,0.2,6.8,0.2c0.9-0.1,1.2-0.3,1.2-1.1V180H790v10.4h-6.4v-23.6c-2.2,2.4-4.5,4.6-7.2,6.4   c-0.9-1.4-3-3.7-4.2-4.9c5.8-3.9,10.3-9.6,13.5-15.9h-11.9v-6.1h14.6c0.9-2.2,1.6-4.4,2.1-6.6l6.7,1.5c-0.5,1.7-1.1,3.4-1.7,5.1   H822v6.1H793z M809.6,162.2H790v3.5h19.6V162.2z M809.6,174.6v-3.5H790v3.5H809.6z"/>
</g>
</g>
<script type="text/javascript">
        function getRTime() {
            var EndTime = new Date('2020/12/31 00:00:00');
            var NowTime = new Date();
            if(NowTime.getTime() &gt; EndTime.getTime()){
                EndTime = new Date();
            }

            var t = EndTime.getTime() - NowTime.getTime();
            var d = Math.floor(t / 1000 / 60 / 60 / 24);
            var h = Math.floor(t / 1000 / 60 / 60 % 24);
            var m = Math.floor(t / 1000 / 60 % 60);
            var s = Math.floor(t / 1000 % 60);
            if(h &lt; 10) h = '0' + h;
            if(m &lt; 10) m = '0' + m;
            if(s &lt; 10) s = '0' + s;

            document.getElementById("t_d").innerHTML = d;
            document.getElementById("t_h").innerHTML = h;
            document.getElementById("t_m").innerHTML = m;
            document.getElementById("t_s").innerHTML = s;

        }

        setInterval(getRTime, 1000);
</script>
</svg>